#VRML V2.0 utf8
# 3D model generated by kicad-lcsc-manager
# Based on easyeda2kicad.py v1.0.1

Shape{
    appearance Appearance {
        material  Material {
            diffuseColor 0.14901960784313725 0.14901960784313725 0.14901960784313725
            specularColor 0.07450980392156863 0.07450980392156863 0.07450980392156863
            ambientIntensity 0.149
            transparency 0.0
            shininess 0.5
        }
    }
    geometry IndexedFaceSet {
        ccw TRUE
        solid FALSE
        coord DEF co Coordinate {
            point [
                -2.0015 -0.2526 -0.0276, -1.9892 -0.2751 -0.0276, -1.9971 -0.2878 -0.0276, -1.8932 -0.3004 -0.0276, -1.8912 -0.3121 -0.0276, -1.9903 -0.3255 -0.0276, -1.9712 -0.274 -0.0276, -1.9783 -0.2647 -0.0276, -1.9036 -0.2647 -0.0276, -1.8841 -0.2892 -0.0276, -1.8917 -0.2762 -0.0276, -1.8327 -0.2526 -0.0276, -1.9015 -0.2663 -0.0276, -2.0015 -0.4646 -0.0276, -2.0015 -0.3293 -0.0276, -2.0 -0.3934 -0.0276, -2.0009 -0.3345 -0.0276, -1.9955 -0.3486 -0.0276, -1.891 -0.3169 -0.0276, -1.8927 -0.3308 -0.0276, -1.8974 -0.3429 -0.0276, -1.9107 -0.274 -0.0276, -1.9013 -0.2837 -0.0276, -1.9778 -0.2805 -0.0276, -1.8953 -0.2943 -0.0276, -1.985 -0.2909 -0.0276, -1.9893 -0.3023 -0.0276, -1.905 -0.3538 -0.0276, -1.9135 -0.3611 -0.0276, -1.924 -0.3664 -0.0276, -1.9541 -0.3676 -0.0276, -1.9639 -0.3639 -0.0276, -1.9411 -0.3692 -0.0276, -1.9731 -0.3576 -0.0276, -1.981 -0.3489 -0.0276, -1.9116 -0.373 -0.0276, -1.9 -0.3649 -0.0276, -1.8819 -0.4388 -0.0276, -1.8892 -0.3526 -0.0276, -1.8828 -0.3401 -0.0276, -1.9909 -0.3161 -0.0276, -1.9353 -0.3689 -0.0276, -1.9872 -0.3375 -0.0276, -1.9879 -0.3934 -0.0276, -1.9559 -0.3781 -0.0276, -1.9879 -0.4388 -0.0276, -1.9403 -0.3798 -0.0276, -1.9241 -0.3778 -0.0276, -1.9873 -0.3601 -0.0276, -1.9824 -0.3648 -0.0276, -1.9694 -0.3734 -0.0276, -1.8794 -0.3257 -0.0276, -1.8789 -0.3162 -0.0276, -1.8809 -0.2987 -0.0276, -2.0 -0.4494 -0.0276, -1.8819 -0.4494 -0.0276, -1.8327 -0.4646 -0.0276, -2.003 -0.3143 -0.0276, -2.1673 -0.2526 -0.0276, -2.0015 -0.3024 -0.0276, -2.0012 -0.2994 -0.0276, -2.1673 -0.4646 -0.0276, -2.003 -0.3161 -0.0276, -2.0 -0.1526 -0.0276, -1.8819 -0.1738 -0.0276, -1.894 -0.1738 -0.0276, -2.0015 0.4646 -0.0276, -1.8327 0.4646 -0.0276, -1.8819 0.017 -0.0276, -1.8819 0.0154 -0.0276, -1.9425 -0.1738 -0.0276, -1.9425 -0.2299 -0.0276, -1.9879 -0.2299 -0.0276, -1.894 -0.2299 -0.0276, -1.9303 -0.2299 -0.0276, -1.9303 -0.1738 -0.0276, -1.9879 -0.1738 -0.0276, -1.9714 -0.062 -0.0276, -1.9835 -0.0701 -0.0276, -2.0 -0.0406 -0.0276, -1.9911 -0.0785 -0.0276, -1.9961 -0.0884 -0.0276, -1.8819 -0.1526 -0.0276, -1.8819 -0.1288 -0.0276, -1.8826 -0.1099 -0.0276, -1.8861 -0.0913 -0.0276, -1.8922 -0.0794 -0.0276, -1.8819 -0.2405 -0.0276, -2.0 -0.2405 -0.0276, -2.0 -0.1738 -0.0276, -2.0 0.0715 -0.0276, -2.0 0.0599 -0.0276, -1.9621 0.0425 -0.0276, -1.9621 -0.0111 -0.0276, -2.0 -0.029 -0.0276, -1.9994 -0.1034 -0.0276, -2.0 -0.116 -0.0276, -1.8998 -0.0706 -0.0276, -1.9106 -0.0631 -0.0276, -1.9231 -0.0582 -0.0276, -1.9374 -0.0559 -0.0276, -1.9424 -0.0557 -0.0276, -1.9583 -0.0574 -0.0276, -2.1673 0.4646 -0.0276, 7.3681 0.1319 0.0512, 7.1673 0.4646 0.0512, 7.6319 0.1319 0.0512, 7.9508 0.4646 0.0512, 7.6319 -0.1319 0.0512, 7.9508 -0.4646 0.0512, 7.3681 -0.1319 0.0512, 7.1673 -0.4646 0.0512, 7.3681 -0.1319 1.1929, 7.1673 -0.4646 1.1929, 7.6319 -0.1319 1.1929, 7.9508 -0.4646 1.1929, 7.6319 0.1319 1.1929, 7.9508 0.4646 1.1929, 7.3681 0.1319 1.1929, 7.1673 0.4646 1.1929, 6.3681 0.1319 0.0512, 6.1673 0.4646 0.0512, 6.6319 0.1319 0.0512, 6.8327 0.4646 0.0512, 6.6319 -0.1319 0.0512, 6.8327 -0.4646 0.0512, 6.3681 -0.1319 0.0512, 6.1673 -0.4646 0.0512, 6.3681 -0.1319 1.1929, 6.1673 -0.4646 1.1929, 6.6319 -0.1319 1.1929, 6.8327 -0.4646 1.1929, 6.6319 0.1319 1.1929, 6.8327 0.4646 1.1929, 6.3681 0.1319 1.1929, 6.1673 0.4646 1.1929, 5.3681 0.1319 0.0512, 5.1673 0.4646 0.0512, 5.6319 0.1319 0.0512, 5.8327 0.4646 0.0512, 5.6319 -0.1319 0.0512, 5.8327 -0.4646 0.0512, 5.3681 -0.1319 0.0512, 5.1673 -0.4646 0.0512, 5.3681 -0.1319 1.1929, 5.1673 -0.4646 1.1929, 5.6319 -0.1319 1.1929, 5.8327 -0.4646 1.1929, 5.6319 0.1319 1.1929, 5.8327 0.4646 1.1929, 5.3681 0.1319 1.1929, 5.1673 0.4646 1.1929, 4.3681 0.1319 0.0512, 4.1673 0.4646 0.0512, 4.6319 0.1319 0.0512, 4.8327 0.4646 0.0512, 4.6319 -0.1319 0.0512, 4.8327 -0.4646 0.0512, 4.3681 -0.1319 0.0512, 4.1673 -0.4646 0.0512, 4.3681 -0.1319 1.1929, 4.1673 -0.4646 1.1929, 4.6319 -0.1319 1.1929, 4.8327 -0.4646 1.1929, 4.6319 0.1319 1.1929, 4.8327 0.4646 1.1929, 4.3681 0.1319 1.1929, 4.1673 0.4646 1.1929, 3.3681 0.1319 0.0512, 3.1673 0.4646 0.0512, 3.6319 0.1319 0.0512, 3.8327 0.4646 0.0512, 3.6319 -0.1319 0.0512, 3.8327 -0.4646 0.0512, 3.3681 -0.1319 0.0512, 3.1673 -0.4646 0.0512, 3.3681 -0.1319 1.1929, 3.1673 -0.4646 1.1929, 3.6319 -0.1319 1.1929, 3.8327 -0.4646 1.1929, 3.6319 0.1319 1.1929, 3.8327 0.4646 1.1929, 3.3681 0.1319 1.1929, 3.1673 0.4646 1.1929, 2.3681 0.1319 0.0512, 2.1673 0.4646 0.0512, 2.6319 0.1319 0.0512, 2.8327 0.4646 0.0512, 2.6319 -0.1319 0.0512, 2.8327 -0.4646 0.0512, 2.3681 -0.1319 0.0512, 2.1673 -0.4646 0.0512, 2.3681 -0.1319 1.1929, 2.1673 -0.4646 1.1929, 2.6319 -0.1319 1.1929, 2.8327 -0.4646 1.1929, 2.6319 0.1319 1.1929, 2.8327 0.4646 1.1929, 2.3681 0.1319 1.1929, 2.1673 0.4646 1.1929, 1.3681 0.1319 0.0512, 1.1673 0.4646 0.0512, 1.6319 0.1319 0.0512, 1.8327 0.4646 0.0512, 1.6319 -0.1319 0.0512, 1.8327 -0.4646 0.0512, 1.3681 -0.1319 0.0512, 1.1673 -0.4646 0.0512, 1.3681 -0.1319 1.1929, 1.1673 -0.4646 1.1929, 1.6319 -0.1319 1.1929, 1.8327 -0.4646 1.1929, 1.6319 0.1319 1.1929, 1.8327 0.4646 1.1929, 1.3681 0.1319 1.1929, 1.1673 0.4646 1.1929, 0.3681 0.1319 0.0512, 0.1673 0.4646 0.0512, 0.6319 0.1319 0.0512, 0.8327 0.4646 0.0512, 0.6319 -0.1319 0.0512, 0.8327 -0.4646 0.0512, 0.3681 -0.1319 0.0512, 0.1673 -0.4646 0.0512, 0.3681 -0.1319 1.1929, 0.1673 -0.4646 1.1929, 0.6319 -0.1319 1.1929, 0.8327 -0.4646 1.1929, 0.6319 0.1319 1.1929, 0.8327 0.4646 1.1929, 0.3681 0.1319 1.1929, 0.1673 0.4646 1.1929, -0.6319 0.1319 0.0512, -0.8327 0.4646 0.0512, -0.3681 0.1319 0.0512, -0.1673 0.4646 0.0512, -0.3681 -0.1319 0.0512, -0.1673 -0.4646 0.0512, -0.6319 -0.1319 0.0512, -0.8327 -0.4646 0.0512, -0.6319 -0.1319 1.1929, -0.8327 -0.4646 1.1929, -0.3681 -0.1319 1.1929, -0.1673 -0.4646 1.1929, -0.3681 0.1319 1.1929, -0.1673 0.4646 1.1929, -0.6319 0.1319 1.1929, -0.8327 0.4646 1.1929, -1.6319 0.1319 0.0512, -1.8327 0.4646 0.0512, -1.3681 0.1319 0.0512, -1.1673 0.4646 0.0512, -1.3681 -0.1319 0.0512, -1.1673 -0.4646 0.0512, -1.6319 -0.1319 0.0512, -1.8327 -0.4646 0.0512, -1.6319 -0.1319 1.1929, -1.8327 -0.4646 1.1929, -1.3681 -0.1319 1.1929, -1.1673 -0.4646 1.1929, -1.3681 0.1319 1.1929, -1.1673 0.4646 1.1929, -1.6319 0.1319 1.1929, -1.8327 0.4646 1.1929, -2.6319 0.1319 0.0512, -2.8327 0.4646 0.0512, -2.3681 0.1319 0.0512, -2.1673 0.4646 0.0512, -2.3681 -0.1319 0.0512, -2.1673 -0.4646 0.0512, -2.6319 -0.1319 0.0512, -2.8327 -0.4646 0.0512, -2.6319 -0.1319 1.1929, -2.8327 -0.4646 1.1929, -2.3681 -0.1319 1.1929, -2.1673 -0.4646 1.1929, -2.3681 0.1319 1.1929, -2.1673 0.4646 1.1929, -2.6319 0.1319 1.1929, -2.8327 0.4646 1.1929, -3.6319 0.1319 0.0512, -3.8327 0.4646 0.0512, -3.3681 0.1319 0.0512, -3.1673 0.4646 0.0512, -3.3681 -0.1319 0.0512, -3.1673 -0.4646 0.0512, -3.6319 -0.1319 0.0512, -3.8327 -0.4646 0.0512, -3.6319 -0.1319 1.1929, -3.8327 -0.4646 1.1929, -3.3681 -0.1319 1.1929, -3.1673 -0.4646 1.1929, -3.3681 0.1319 1.1929, -3.1673 0.4646 1.1929, -3.6319 0.1319 1.1929, -3.8327 0.4646 1.1929, -4.6319 0.1319 0.0512, -4.8327 0.4646 0.0512, -4.3681 0.1319 0.0512, -4.1673 0.4646 0.0512, -4.3681 -0.1319 0.0512, -4.1673 -0.4646 0.0512, -4.6319 -0.1319 0.0512, -4.8327 -0.4646 0.0512, -4.6319 -0.1319 1.1929, -4.8327 -0.4646 1.1929, -4.3681 -0.1319 1.1929, -4.1673 -0.4646 1.1929, -4.3681 0.1319 1.1929, -4.1673 0.4646 1.1929, -4.6319 0.1319 1.1929, -4.8327 0.4646 1.1929, -5.6319 0.1319 0.0512, -5.8327 0.4646 0.0512, -5.3681 0.1319 0.0512, -5.1673 0.4646 0.0512, -5.3681 -0.1319 0.0512, -5.1673 -0.4646 0.0512, -5.6319 -0.1319 0.0512, -5.8327 -0.4646 0.0512, -5.6319 -0.1319 1.1929, -5.8327 -0.4646 1.1929, -5.3681 -0.1319 1.1929, -5.1673 -0.4646 1.1929, -5.3681 0.1319 1.1929, -5.1673 0.4646 1.1929, -5.6319 0.1319 1.1929, -5.8327 0.4646 1.1929, -6.6319 0.1319 0.0512, -6.8327 0.4646 0.0512, -6.3681 0.1319 0.0512, -6.1673 0.4646 0.0512, -6.3681 -0.1319 0.0512, -6.1673 -0.4646 0.0512, -6.6319 -0.1319 0.0512, -6.8327 -0.4646 0.0512, -6.6319 -0.1319 1.1929, -6.8327 -0.4646 1.1929, -6.3681 -0.1319 1.1929, -6.1673 -0.4646 1.1929, -6.3681 0.1319 1.1929, -6.1673 0.4646 1.1929, -6.6319 0.1319 1.1929, -6.8327 0.4646 1.1929, -1.1673 0.4646 1.2717, -1.1673 -0.4646 1.2717, -0.8327 0.4646 1.2717, -0.8327 -0.4646 1.2717, -2.1673 0.4646 1.2717, -2.1673 -0.4646 1.2717, -1.8327 0.4646 1.2717, -1.8327 -0.4646 1.2717, 0.8327 0.4646 1.2717, 0.8327 -0.4646 1.2717, 1.1673 0.4646 1.2717, 1.1673 -0.4646 1.2717, 0.1673 -0.4646 1.2717, 0.1673 0.4646 1.2717, -0.1673 -0.4646 1.2717, -0.1673 0.4646 1.2717, -5.1673 0.4646 1.2717, -5.1673 -0.4646 1.2717, -4.8327 0.4646 1.2717, -4.8327 -0.4646 1.2717, -6.1673 0.4646 1.2717, -6.1673 -0.4646 1.2717, -5.8327 0.4646 1.2717, -5.8327 -0.4646 1.2717, -3.1673 0.4646 1.2717, -3.1673 -0.4646 1.2717, -2.8327 0.4646 1.2717, -2.8327 -0.4646 1.2717, -3.8327 -0.4646 1.2717, -3.8327 0.4646 1.2717, -4.1673 -0.4646 1.2717, -4.1673 0.4646 1.2717, 6.8327 0.4646 1.2717, 6.8327 -0.4646 1.2717, 7.1673 0.4646 1.2717, 7.1673 -0.4646 1.2717, 5.8327 0.4646 1.2717, 5.8327 -0.4646 1.2717, 6.1673 0.4646 1.2717, 6.1673 -0.4646 1.2717, 2.8327 0.4646 1.2717, 2.8327 -0.4646 1.2717, 3.1673 0.4646 1.2717, 3.1673 -0.4646 1.2717, 2.1673 -0.4646 1.2717, 2.1673 0.4646 1.2717, 1.8327 -0.4646 1.2717, 1.8327 0.4646 1.2717, 4.8327 0.4646 1.2717, 4.8327 -0.4646 1.2717, 5.1673 0.4646 1.2717, 5.1673 -0.4646 1.2717, 4.1673 -0.4646 1.2717, 4.1673 0.4646 1.2717, 3.8327 -0.4646 1.2717, 3.8327 0.4646 1.2717, -7.1673 0.4646 1.2717, -7.1673 -0.4646 1.2717, -6.8327 0.4646 1.2717, -6.8327 -0.4646 1.2717, -2.8327 -0.4646 -0.0276, -3.1673 -0.4646 -0.0276, -2.8327 0.4646 -0.0276, -3.1673 0.4646 -0.0276, 0.1673 -0.4646 -0.0276, -0.1673 -0.4646 -0.0276, 0.1673 0.4646 -0.0276, -0.1673 0.4646 -0.0276, -1.1673 0.4646 -0.0276, -0.8327 0.4646 -0.0276, -1.1673 -0.4646 -0.0276, -0.8327 -0.4646 -0.0276, -5.8327 -0.4646 -0.0276, -6.1673 -0.4646 -0.0276, -5.8327 0.4646 -0.0276, -6.1673 0.4646 -0.0276, -6.8327 -0.4646 -0.0276, -7.1673 -0.4646 -0.0276, -6.8327 0.4646 -0.0276, -7.1673 0.4646 -0.0276, -3.8327 -0.4646 -0.0276, -4.1673 -0.4646 -0.0276, -3.8327 0.4646 -0.0276, -4.1673 0.4646 -0.0276, -5.1673 0.4646 -0.0276, -4.8327 0.4646 -0.0276, -5.1673 -0.4646 -0.0276, -4.8327 -0.4646 -0.0276, 6.1673 -0.4646 -0.0276, 5.8327 -0.4646 -0.0276, 6.1673 0.4646 -0.0276, 5.8327 0.4646 -0.0276, 5.1673 -0.4646 -0.0276, 4.8327 -0.4646 -0.0276, 5.1673 0.4646 -0.0276, 4.8327 0.4646 -0.0276, 6.8327 0.4646 -0.0276, 7.1673 0.4646 -0.0276, 6.8327 -0.4646 -0.0276, 7.1673 -0.4646 -0.0276, 2.1673 -0.4646 -0.0276, 1.8327 -0.4646 -0.0276, 2.1673 0.4646 -0.0276, 1.8327 0.4646 -0.0276, 0.8327 0.4646 -0.0276, 1.1673 0.4646 -0.0276, 0.8327 -0.4646 -0.0276, 1.1673 -0.4646 -0.0276, 4.1673 -0.4646 -0.0276, 3.8327 -0.4646 -0.0276, 4.1673 0.4646 -0.0276, 3.8327 0.4646 -0.0276, 2.8327 0.4646 -0.0276, 3.1673 0.4646 -0.0276, 2.8327 -0.4646 -0.0276, 3.1673 -0.4646 -0.0276, -7.6319 0.1319 0.0512, -7.9508 0.4646 0.0512, -7.3681 0.1319 0.0512, -7.1673 0.4646 0.0512, -7.3681 -0.1319 0.0512, -7.1673 -0.4646 0.0512, -7.6319 -0.1319 0.0512, -7.9508 -0.4646 0.0512, -7.6319 -0.1319 1.1929, -7.9508 -0.4646 1.1929, -7.3681 -0.1319 1.1929, -7.1673 -0.4646 1.1929, -7.3681 0.1319 1.1929, -7.1673 0.4646 1.1929, -7.6319 0.1319 1.1929, -7.9508 0.4646 1.1929
            ]
        }
        coordIndex [
            0,1,2,-1,3,4,5,-1,6,7,8,-1,9,10,11,-1,10,12,11,-1,11,12,8,-1,11,8,0,-1,0,8,7,-1,0,7,1,-1,13,14,15,-1,15,14,16,-1,15,16,17,-1,4,18,5,-1,5,18,19,-1,5,19,20,-1,8,21,6,-1,6,21,22,-1,6,22,23,-1,23,22,24,-1,23,24,25,-1,25,24,26,-1,20,27,5,-1,5,27,28,-1,5,28,29,-1,30,31,32,-1,32,31,33,-1,32,33,34,-1,35,36,37,-1,37,36,38,-1,37,38,39,-1,3,5,24,-1,24,5,40,-1,24,40,26,-1,29,41,5,-1,5,41,32,-1,5,32,42,-1,42,32,34,-1,43,44,45,-1,45,44,46,-1,45,46,37,-1,37,46,47,-1,37,47,35,-1,17,48,15,-1,15,48,49,-1,15,49,43,-1,43,49,50,-1,43,50,44,-1,51,52,11,-1,11,52,53,-1,11,53,9,-1,15,54,13,-1,13,54,55,-1,13,55,56,-1,56,55,37,-1,56,37,11,-1,11,37,39,-1,11,39,51,-1,57,58,59,-1,59,58,0,-1,59,0,60,-1,60,0,2,-1,13,61,14,-1,14,61,58,-1,14,58,62,-1,62,58,57,-1,63,64,65,-1,66,67,68,-1,68,67,11,-1,68,11,69,-1,70,71,72,-1,73,74,65,-1,65,74,75,-1,65,75,63,-1,63,75,70,-1,63,70,76,-1,76,70,72,-1,77,78,79,-1,79,78,80,-1,79,80,81,-1,82,83,11,-1,11,83,84,-1,11,84,69,-1,69,84,85,-1,69,85,86,-1,63,82,64,-1,64,82,11,-1,64,11,87,-1,87,11,0,-1,87,0,88,-1,88,0,89,-1,90,91,0,-1,92,93,91,-1,91,93,94,-1,91,94,0,-1,0,94,79,-1,81,95,79,-1,79,95,96,-1,79,96,0,-1,0,96,63,-1,0,63,89,-1,89,63,76,-1,86,97,69,-1,69,97,98,-1,69,98,99,-1,99,100,69,-1,69,100,101,-1,69,101,79,-1,79,101,102,-1,79,102,77,-1,58,103,0,-1,0,103,66,-1,0,66,90,-1,90,66,68,-1,104,105,106,-1,106,105,107,-1,106,107,108,-1,108,107,109,-1,108,109,110,-1,110,109,111,-1,110,111,104,-1,104,111,105,-1,112,113,114,-1,114,113,115,-1,114,115,116,-1,116,115,117,-1,116,117,118,-1,118,117,119,-1,118,119,112,-1,112,119,113,-1,120,121,122,-1,122,121,123,-1,122,123,124,-1,124,123,125,-1,124,125,126,-1,126,125,127,-1,126,127,120,-1,120,127,121,-1,128,129,130,-1,130,129,131,-1,130,131,132,-1,132,131,133,-1,132,133,134,-1,134,133,135,-1,134,135,128,-1,128,135,129,-1,136,137,138,-1,138,137,139,-1,138,139,140,-1,140,139,141,-1,140,141,142,-1,142,141,143,-1,142,143,136,-1,136,143,137,-1,144,145,146,-1,146,145,147,-1,146,147,148,-1,148,147,149,-1,148,149,150,-1,150,149,151,-1,150,151,144,-1,144,151,145,-1,152,153,154,-1,154,153,155,-1,154,155,156,-1,156,155,157,-1,156,157,158,-1,158,157,159,-1,158,159,152,-1,152,159,153,-1,160,161,162,-1,162,161,163,-1,162,163,164,-1,164,163,165,-1,164,165,166,-1,166,165,167,-1,166,167,160,-1,160,167,161,-1,168,169,170,-1,170,169,171,-1,170,171,172,-1,172,171,173,-1,172,173,174,-1,174,173,175,-1,174,175,168,-1,168,175,169,-1,176,177,178,-1,178,177,179,-1,178,179,180,-1,180,179,181,-1,180,181,182,-1,182,181,183,-1,182,183,176,-1,176,183,177,-1,184,185,186,-1,186,185,187,-1,186,187,188,-1,188,187,189,-1,188,189,190,-1,190,189,191,-1,190,191,184,-1,184,191,185,-1,192,193,194,-1,194,193,195,-1,194,195,196,-1,196,195,197,-1,196,197,198,-1,198,197,199,-1,198,199,192,-1,192,199,193,-1,200,201,202,-1,202,201,203,-1,202,203,204,-1,204,203,205,-1,204,205,206,-1,206,205,207,-1,206,207,200,-1,200,207,201,-1,208,209,210,-1,210,209,211,-1,210,211,212,-1,212,211,213,-1,212,213,214,-1,214,213,215,-1,214,215,208,-1,208,215,209,-1,216,217,218,-1,218,217,219,-1,218,219,220,-1,220,219,221,-1,220,221,222,-1,222,221,223,-1,222,223,216,-1,216,223,217,-1,224,225,226,-1,226,225,227,-1,226,227,228,-1,228,227,229,-1,228,229,230,-1,230,229,231,-1,230,231,224,-1,224,231,225,-1,232,233,234,-1,234,233,235,-1,234,235,236,-1,236,235,237,-1,236,237,238,-1,238,237,239,-1,238,239,232,-1,232,239,233,-1,240,241,242,-1,242,241,243,-1,242,243,244,-1,244,243,245,-1,244,245,246,-1,246,245,247,-1,246,247,240,-1,240,247,241,-1,248,249,250,-1,250,249,251,-1,250,251,252,-1,252,251,253,-1,252,253,254,-1,254,253,255,-1,254,255,248,-1,248,255,249,-1,256,257,258,-1,258,257,259,-1,258,259,260,-1,260,259,261,-1,260,261,262,-1,262,261,263,-1,262,263,256,-1,256,263,257,-1,264,265,266,-1,266,265,267,-1,266,267,268,-1,268,267,269,-1,268,269,270,-1,270,269,271,-1,270,271,264,-1,264,271,265,-1,272,273,274,-1,274,273,275,-1,274,275,276,-1,276,275,277,-1,276,277,278,-1,278,277,279,-1,278,279,272,-1,272,279,273,-1,280,281,282,-1,282,281,283,-1,282,283,284,-1,284,283,285,-1,284,285,286,-1,286,285,287,-1,286,287,280,-1,280,287,281,-1,288,289,290,-1,290,289,291,-1,290,291,292,-1,292,291,293,-1,292,293,294,-1,294,293,295,-1,294,295,288,-1,288,295,289,-1,296,297,298,-1,298,297,299,-1,298,299,300,-1,300,299,301,-1,300,301,302,-1,302,301,303,-1,302,303,296,-1,296,303,297,-1,304,305,306,-1,306,305,307,-1,306,307,308,-1,308,307,309,-1,308,309,310,-1,310,309,311,-1,310,311,304,-1,304,311,305,-1,312,313,314,-1,314,313,315,-1,314,315,316,-1,316,315,317,-1,316,317,318,-1,318,317,319,-1,318,319,312,-1,312,319,313,-1,320,321,322,-1,322,321,323,-1,322,323,324,-1,324,323,325,-1,324,325,326,-1,326,325,327,-1,326,327,320,-1,320,327,321,-1,328,329,330,-1,330,329,331,-1,330,331,332,-1,332,331,333,-1,332,333,334,-1,334,333,335,-1,334,335,328,-1,328,335,329,-1,336,337,338,-1,338,337,339,-1,338,339,340,-1,340,339,341,-1,340,341,342,-1,342,341,343,-1,342,343,336,-1,336,343,337,-1,344,345,346,-1,346,345,347,-1,348,349,350,-1,350,349,351,-1,352,353,354,-1,354,353,355,-1,356,357,358,-1,358,357,359,-1,360,361,362,-1,362,361,363,-1,364,365,366,-1,366,365,367,-1,368,369,370,-1,370,369,371,-1,372,373,374,-1,374,373,375,-1,376,377,378,-1,378,377,379,-1,380,381,382,-1,382,381,383,-1,384,385,386,-1,386,385,387,-1,388,389,390,-1,390,389,391,-1,392,393,394,-1,394,393,395,-1,396,397,398,-1,398,397,399,-1,400,401,402,-1,402,401,403,-1,404,405,406,-1,406,405,407,-1,408,409,410,-1,410,409,411,-1,412,413,414,-1,414,413,415,-1,416,417,418,-1,418,417,419,-1,420,421,422,-1,422,421,423,-1,424,425,426,-1,426,425,427,-1,428,429,430,-1,430,429,431,-1,432,433,434,-1,434,433,435,-1,436,437,438,-1,438,437,439,-1,440,441,442,-1,442,441,443,-1,444,445,446,-1,446,445,447,-1,448,449,450,-1,450,449,451,-1,452,453,454,-1,454,453,455,-1,456,457,458,-1,458,457,459,-1,460,461,462,-1,462,461,463,-1,462,463,464,-1,464,463,465,-1,464,465,466,-1,466,465,467,-1,466,467,460,-1,460,467,461,-1,468,469,470,-1,470,469,471,-1,470,471,472,-1,472,471,473,-1,472,473,474,-1,474,473,475,-1,474,475,468,-1,468,475,469,-1,107,117,109,-1,109,117,115,-1,119,117,107,-1,400,402,473,-1,473,402,343,-1,329,475,331,-1,331,475,473,-1,461,475,463,-1,463,475,329,-1,463,329,423,-1,423,329,422,-1,364,366,341,-1,341,366,327,-1,419,331,418,-1,418,331,473,-1,418,473,313,-1,313,473,343,-1,313,343,315,-1,315,343,341,-1,360,362,325,-1,325,362,311,-1,428,315,429,-1,429,315,341,-1,429,341,297,-1,297,341,327,-1,297,327,299,-1,299,327,325,-1,375,373,309,-1,309,373,295,-1,66,103,267,-1,427,299,426,-1,426,299,325,-1,426,325,281,-1,281,325,311,-1,281,311,283,-1,283,311,309,-1,368,370,293,-1,293,370,279,-1,249,67,66,-1,348,350,277,-1,277,350,263,-1,279,277,251,-1,251,249,279,-1,279,249,66,-1,279,66,293,-1,293,66,267,-1,293,267,295,-1,295,267,265,-1,295,265,309,-1,309,265,406,-1,309,406,283,-1,283,406,407,-1,344,346,261,-1,261,346,247,-1,412,251,413,-1,413,251,277,-1,413,277,233,-1,233,277,263,-1,233,263,235,-1,235,263,261,-1,359,357,245,-1,245,357,231,-1,411,235,410,-1,410,235,261,-1,410,261,217,-1,217,261,247,-1,217,247,219,-1,219,247,245,-1,352,354,229,-1,229,354,215,-1,448,219,449,-1,449,219,245,-1,449,245,201,-1,201,245,231,-1,201,231,203,-1,203,231,229,-1,391,389,213,-1,213,389,199,-1,447,203,446,-1,446,203,229,-1,446,229,185,-1,185,229,215,-1,185,215,187,-1,187,215,213,-1,384,386,197,-1,197,386,183,-1,456,187,457,-1,457,187,213,-1,457,213,169,-1,169,213,199,-1,169,199,171,-1,171,199,197,-1,399,397,181,-1,181,397,167,-1,455,171,454,-1,454,171,197,-1,454,197,153,-1,153,197,183,-1,153,183,155,-1,155,183,181,-1,392,394,165,-1,165,394,151,-1,439,155,438,-1,438,155,181,-1,438,181,137,-1,137,181,167,-1,137,167,139,-1,139,167,165,-1,380,382,149,-1,149,382,135,-1,133,376,378,-1,435,139,434,-1,434,139,165,-1,434,165,121,-1,121,165,151,-1,121,151,123,-1,123,151,149,-1,378,119,133,-1,133,119,107,-1,133,107,135,-1,135,107,105,-1,135,105,149,-1,149,105,441,-1,149,441,123,-1,123,441,440,-1,467,469,461,-1,461,469,475,-1,111,109,115,-1,421,420,465,-1,465,420,335,-1,337,467,339,-1,339,467,465,-1,469,467,471,-1,471,467,337,-1,471,337,401,-1,401,337,403,-1,417,416,333,-1,333,416,319,-1,365,339,367,-1,367,339,465,-1,367,465,321,-1,321,465,335,-1,321,335,323,-1,323,335,333,-1,430,431,317,-1,317,431,303,-1,361,323,363,-1,363,323,333,-1,363,333,305,-1,305,333,319,-1,305,319,307,-1,307,319,317,-1,425,424,301,-1,301,424,287,-1,374,307,372,-1,372,307,317,-1,372,317,289,-1,289,317,303,-1,289,303,291,-1,291,303,301,-1,405,404,285,-1,285,404,271,-1,369,291,371,-1,371,291,301,-1,371,301,273,-1,273,301,287,-1,273,287,275,-1,275,287,285,-1,56,255,13,-1,13,255,269,-1,13,269,61,-1,349,275,351,-1,351,275,285,-1,351,285,257,-1,257,285,271,-1,257,271,259,-1,259,271,269,-1,414,415,253,-1,253,415,239,-1,345,259,347,-1,347,259,269,-1,347,269,241,-1,241,269,255,-1,241,255,243,-1,243,255,253,-1,409,408,237,-1,237,408,223,-1,358,243,356,-1,356,243,253,-1,356,253,225,-1,225,253,239,-1,225,239,227,-1,227,239,237,-1,450,451,221,-1,221,451,207,-1,353,227,355,-1,355,227,237,-1,355,237,209,-1,209,237,223,-1,209,223,211,-1,211,223,221,-1,445,444,205,-1,205,444,191,-1,390,211,388,-1,388,211,221,-1,388,221,193,-1,193,221,207,-1,193,207,195,-1,195,207,205,-1,458,459,189,-1,189,459,175,-1,385,195,387,-1,387,195,205,-1,387,205,177,-1,177,205,191,-1,177,191,179,-1,179,191,189,-1,453,452,173,-1,173,452,159,-1,398,179,396,-1,396,179,189,-1,396,189,161,-1,161,189,175,-1,161,175,163,-1,163,175,173,-1,437,436,157,-1,157,436,143,-1,393,163,395,-1,395,163,173,-1,395,173,145,-1,145,173,159,-1,145,159,147,-1,147,159,157,-1,433,432,141,-1,141,432,127,-1,125,442,443,-1,381,147,383,-1,383,147,157,-1,383,157,129,-1,129,157,143,-1,129,143,131,-1,131,143,141,-1,443,111,125,-1,125,111,115,-1,125,115,127,-1,127,115,113,-1,127,113,141,-1,141,113,379,-1,141,379,131,-1,131,379,377,-1,465,463,421,-1,421,463,423,-1,401,400,471,-1,471,400,473,-1,
        ]
    }
}
Shape{
    appearance Appearance {
        material  Material {
            diffuseColor 0.7529411764705882 0.7529411764705882 0.7529411764705882
            specularColor 0.3764705882352941 0.3764705882352941 0.3764705882352941
            ambientIntensity 0.7529
            transparency 0.0
            shininess 0.5
        }
    }
    geometry IndexedFaceSet {
        ccw TRUE
        solid FALSE
        coord DEF co Coordinate {
            point [
                -7.6319 -0.0531 4.2205, -7.6319 -0.1319 4.1417, -7.3681 -0.0531 4.2205, -7.3681 -0.1319 4.1417, -7.6319 0.0531 4.2205, -7.3681 0.0531 4.2205, -7.6319 0.1319 4.1417, -7.3681 0.1319 4.1417, -7.6319 -0.1319 1.1929, -7.6319 0.1319 1.1929, -7.3681 0.1319 1.1929, -7.3681 -0.1319 1.1929, -7.6319 -0.1319 0.0512, -7.6319 -0.1319 -1.2992, -7.3681 -0.1319 0.0512, -7.3681 -0.1319 -1.2992, -7.3681 0.1319 0.0512, -7.3681 0.1319 -1.2992, -7.6319 0.1319 0.0512, -7.6319 0.1319 -1.2992, -7.6319 0.0531 -1.378, -7.6319 -0.0531 -1.378, -7.3681 -0.0531 -1.378, -7.3681 0.0531 -1.378
            ]
        }
        coordIndex [
            0,1,2,-1,2,1,3,-1,4,0,5,-1,5,0,2,-1,6,4,7,-1,7,4,5,-1,0,4,1,-1,1,4,6,-1,1,6,8,-1,8,6,9,-1,5,2,7,-1,7,2,3,-1,7,3,10,-1,10,3,11,-1,9,6,10,-1,10,6,7,-1,11,3,8,-1,8,3,1,-1,12,13,14,-1,14,13,15,-1,16,17,18,-1,18,17,19,-1,20,21,19,-1,19,21,13,-1,19,13,18,-1,18,13,12,-1,22,23,15,-1,15,23,17,-1,15,17,14,-1,14,17,16,-1,20,19,23,-1,23,19,17,-1,21,20,22,-1,22,20,23,-1,13,21,15,-1,15,21,22,-1,
        ]
    }
}
Shape{
    appearance Appearance {
        material  Material {
            diffuseColor 0.14901960784313725 0.14901960784313725 0.14901960784313725
            specularColor 0.07450980392156863 0.07450980392156863 0.07450980392156863
            ambientIntensity 0.149
            transparency 0.0
            shininess 0.5
        }
    }
    geometry IndexedFaceSet {
        ccw TRUE
        solid FALSE
        coord DEF co Coordinate {
            point [
                3.1673 -0.4646 -0.0276, 3.1673 0.4646 -0.0276, 3.1673 -0.4646 0.0512, 3.1673 0.4646 0.0512, 3.8327 -0.4646 0.0512, 3.8327 0.4646 0.0512, 3.8327 -0.4646 -0.0276, 3.8327 0.4646 -0.0276, 4.1673 -0.4646 -0.0276, 4.1673 0.4646 -0.0276, 4.1673 -0.4646 0.0512, 4.1673 0.4646 0.0512, 4.8327 -0.4646 0.0512, 4.8327 0.4646 0.0512, 4.8327 -0.4646 -0.0276, 4.8327 0.4646 -0.0276, 1.1673 -0.4646 -0.0276, 1.1673 0.4646 -0.0276, 1.1673 -0.4646 0.0512, 1.1673 0.4646 0.0512, 1.8327 -0.4646 0.0512, 1.8327 0.4646 0.0512, 1.8327 -0.4646 -0.0276, 1.8327 0.4646 -0.0276, 2.1673 -0.4646 -0.0276, 2.1673 0.4646 -0.0276, 2.1673 -0.4646 0.0512, 2.1673 0.4646 0.0512, 2.8327 -0.4646 0.0512, 2.8327 0.4646 0.0512, 2.8327 -0.4646 -0.0276, 2.8327 0.4646 -0.0276, 7.1673 -0.4646 -0.0276, 7.1673 0.4646 -0.0276, 7.1673 -0.4646 0.0512, 7.1673 0.4646 0.0512, 5.1673 -0.4646 -0.0276, 5.1673 0.4646 -0.0276, 5.1673 -0.4646 0.0512, 5.1673 0.4646 0.0512, 5.8327 -0.4646 0.0512, 5.8327 0.4646 0.0512, 5.8327 -0.4646 -0.0276, 5.8327 0.4646 -0.0276, 6.1673 -0.4646 -0.0276, 6.1673 0.4646 -0.0276, 6.1673 -0.4646 0.0512, 6.1673 0.4646 0.0512, 6.8327 -0.4646 0.0512, 6.8327 0.4646 0.0512, 6.8327 -0.4646 -0.0276, 6.8327 0.4646 -0.0276, -4.8327 -0.4646 -0.0276, -4.8327 0.4646 -0.0276, -4.8327 -0.4646 0.0512, -4.8327 0.4646 0.0512, -4.1673 -0.4646 0.0512, -4.1673 0.4646 0.0512, -4.1673 -0.4646 -0.0276, -4.1673 0.4646 -0.0276, -3.8327 -0.4646 -0.0276, -3.8327 0.4646 -0.0276, -3.8327 -0.4646 0.0512, -3.8327 0.4646 0.0512, -3.1673 -0.4646 0.0512, -3.1673 0.4646 0.0512, -3.1673 -0.4646 -0.0276, -3.1673 0.4646 -0.0276, -6.8327 -0.4646 -0.0276, -6.8327 0.4646 -0.0276, -6.8327 -0.4646 0.0512, -6.8327 0.4646 0.0512, -6.1673 -0.4646 0.0512, -6.1673 0.4646 0.0512, -6.1673 -0.4646 -0.0276, -6.1673 0.4646 -0.0276, -5.8327 -0.4646 -0.0276, -5.8327 0.4646 -0.0276, -5.8327 -0.4646 0.0512, -5.8327 0.4646 0.0512, -5.1673 -0.4646 0.0512, -5.1673 0.4646 0.0512, -5.1673 -0.4646 -0.0276, -5.1673 0.4646 -0.0276, -0.8327 -0.4646 -0.0276, -0.8327 0.4646 -0.0276, -0.8327 -0.4646 0.0512, -0.8327 0.4646 0.0512, -0.1673 -0.4646 0.0512, -0.1673 0.4646 0.0512, -0.1673 -0.4646 -0.0276, -0.1673 0.4646 -0.0276, 0.1673 -0.4646 -0.0276, 0.1673 0.4646 -0.0276, 0.1673 -0.4646 0.0512, 0.1673 0.4646 0.0512, 0.8327 -0.4646 0.0512, 0.8327 0.4646 0.0512, 0.8327 -0.4646 -0.0276, 0.8327 0.4646 -0.0276, -2.8327 -0.4646 -0.0276, -2.8327 0.4646 -0.0276, -2.8327 -0.4646 0.0512, -2.8327 0.4646 0.0512, -2.1673 -0.4646 0.0512, -2.1673 0.4646 0.0512, -2.1673 -0.4646 -0.0276, -2.1673 0.4646 -0.0276, -1.8327 -0.4646 -0.0276, -1.8327 0.4646 -0.0276, -1.8327 -0.4646 0.0512, -1.8327 0.4646 0.0512, -1.1673 -0.4646 0.0512, -1.1673 0.4646 0.0512, -1.1673 -0.4646 -0.0276, -1.1673 0.4646 -0.0276, -6.8327 -0.4646 1.1929, -6.8327 0.4646 1.1929, -6.8327 -0.4646 1.2717, -6.8327 0.4646 1.2717, -6.1673 -0.4646 1.2717, -6.1673 0.4646 1.2717, -6.1673 -0.4646 1.1929, -6.1673 0.4646 1.1929, 4.1673 -0.4646 1.1929, 4.1673 0.4646 1.1929, 4.1673 -0.4646 1.2717, 4.1673 0.4646 1.2717, 4.8327 -0.4646 1.2717, 4.8327 0.4646 1.2717, 4.8327 -0.4646 1.1929, 4.8327 0.4646 1.1929, 5.1673 -0.4646 1.1929, 5.1673 0.4646 1.1929, 5.1673 -0.4646 1.2717, 5.1673 0.4646 1.2717, 5.8327 -0.4646 1.2717, 5.8327 0.4646 1.2717, 5.8327 -0.4646 1.1929, 5.8327 0.4646 1.1929, 2.1673 -0.4646 1.1929, 2.1673 0.4646 1.1929, 2.1673 -0.4646 1.2717, 2.1673 0.4646 1.2717, 2.8327 -0.4646 1.2717, 2.8327 0.4646 1.2717, 2.8327 -0.4646 1.1929, 2.8327 0.4646 1.1929, 3.1673 -0.4646 1.1929, 3.1673 0.4646 1.1929, 3.1673 -0.4646 1.2717, 3.1673 0.4646 1.2717, 3.8327 -0.4646 1.2717, 3.8327 0.4646 1.2717, 3.8327 -0.4646 1.1929, 3.8327 0.4646 1.1929, 6.1673 -0.4646 1.1929, 6.1673 0.4646 1.1929, 6.1673 -0.4646 1.2717, 6.1673 0.4646 1.2717, 6.8327 -0.4646 1.2717, 6.8327 0.4646 1.2717, 6.8327 -0.4646 1.1929, 6.8327 0.4646 1.1929, 7.1673 -0.4646 1.1929, 7.1673 0.4646 1.1929, 7.1673 -0.4646 1.2717, 7.1673 0.4646 1.2717, -3.8327 -0.4646 1.1929, -3.8327 0.4646 1.1929, -3.8327 -0.4646 1.2717, -3.8327 0.4646 1.2717, -3.1673 -0.4646 1.2717, -3.1673 0.4646 1.2717, -3.1673 -0.4646 1.1929, -3.1673 0.4646 1.1929, -2.8327 -0.4646 1.1929, -2.8327 0.4646 1.1929, -2.8327 -0.4646 1.2717, -2.8327 0.4646 1.2717, -2.1673 -0.4646 1.2717, -2.1673 0.4646 1.2717, -2.1673 -0.4646 1.1929, -2.1673 0.4646 1.1929, -5.8327 -0.4646 1.1929, -5.8327 0.4646 1.1929, -5.8327 -0.4646 1.2717, -5.8327 0.4646 1.2717, -5.1673 -0.4646 1.2717, -5.1673 0.4646 1.2717, -5.1673 -0.4646 1.1929, -5.1673 0.4646 1.1929, -4.8327 -0.4646 1.1929, -4.8327 0.4646 1.1929, -4.8327 -0.4646 1.2717, -4.8327 0.4646 1.2717, -4.1673 -0.4646 1.2717, -4.1673 0.4646 1.2717, -4.1673 -0.4646 1.1929, -4.1673 0.4646 1.1929, 0.1673 -0.4646 1.1929, 0.1673 0.4646 1.1929, 0.1673 -0.4646 1.2717, 0.1673 0.4646 1.2717, 0.8327 -0.4646 1.2717, 0.8327 0.4646 1.2717, 0.8327 -0.4646 1.1929, 0.8327 0.4646 1.1929, 1.1673 -0.4646 1.1929, 1.1673 0.4646 1.1929, 1.1673 -0.4646 1.2717, 1.1673 0.4646 1.2717, 1.8327 -0.4646 1.2717, 1.8327 0.4646 1.2717, 1.8327 -0.4646 1.1929, 1.8327 0.4646 1.1929, -1.8327 -0.4646 1.1929, -1.8327 0.4646 1.1929, -1.8327 -0.4646 1.2717, -1.8327 0.4646 1.2717, -1.1673 -0.4646 1.2717, -1.1673 0.4646 1.2717, -1.1673 -0.4646 1.1929, -1.1673 0.4646 1.1929, -0.8327 -0.4646 1.1929, -0.8327 0.4646 1.1929, -0.8327 -0.4646 1.2717, -0.8327 0.4646 1.2717, -0.1673 -0.4646 1.2717, -0.1673 0.4646 1.2717, -0.1673 -0.4646 1.1929, -0.1673 0.4646 1.1929
            ]
        }
        coordIndex [
            0,1,2,-1,2,1,3,-1,4,5,6,-1,6,5,7,-1,8,9,10,-1,10,9,11,-1,12,13,14,-1,14,13,15,-1,16,17,18,-1,18,17,19,-1,20,21,22,-1,22,21,23,-1,24,25,26,-1,26,25,27,-1,28,29,30,-1,30,29,31,-1,32,33,34,-1,34,33,35,-1,36,37,38,-1,38,37,39,-1,40,41,42,-1,42,41,43,-1,44,45,46,-1,46,45,47,-1,48,49,50,-1,50,49,51,-1,52,53,54,-1,54,53,55,-1,56,57,58,-1,58,57,59,-1,60,61,62,-1,62,61,63,-1,64,65,66,-1,66,65,67,-1,68,69,70,-1,70,69,71,-1,72,73,74,-1,74,73,75,-1,76,77,78,-1,78,77,79,-1,80,81,82,-1,82,81,83,-1,84,85,86,-1,86,85,87,-1,88,89,90,-1,90,89,91,-1,92,93,94,-1,94,93,95,-1,96,97,98,-1,98,97,99,-1,100,101,102,-1,102,101,103,-1,104,105,106,-1,106,105,107,-1,108,109,110,-1,110,109,111,-1,112,113,114,-1,114,113,115,-1,116,117,118,-1,118,117,119,-1,120,121,122,-1,122,121,123,-1,124,125,126,-1,126,125,127,-1,128,129,130,-1,130,129,131,-1,132,133,134,-1,134,133,135,-1,136,137,138,-1,138,137,139,-1,140,141,142,-1,142,141,143,-1,144,145,146,-1,146,145,147,-1,148,149,150,-1,150,149,151,-1,152,153,154,-1,154,153,155,-1,156,157,158,-1,158,157,159,-1,160,161,162,-1,162,161,163,-1,164,165,166,-1,166,165,167,-1,168,169,170,-1,170,169,171,-1,172,173,174,-1,174,173,175,-1,176,177,178,-1,178,177,179,-1,180,181,182,-1,182,181,183,-1,184,185,186,-1,186,185,187,-1,188,189,190,-1,190,189,191,-1,192,193,194,-1,194,193,195,-1,196,197,198,-1,198,197,199,-1,200,201,202,-1,202,201,203,-1,204,205,206,-1,206,205,207,-1,208,209,210,-1,210,209,211,-1,212,213,214,-1,214,213,215,-1,216,217,218,-1,218,217,219,-1,220,221,222,-1,222,221,223,-1,224,225,226,-1,226,225,227,-1,228,229,230,-1,230,229,231,-1,
        ]
    }
}
Shape{
    appearance Appearance {
        material  Material {
            diffuseColor 0.7529411764705882 0.7529411764705882 0.7529411764705882
            specularColor 0.3764705882352941 0.3764705882352941 0.3764705882352941
            ambientIntensity 0.7529
            transparency 0.0
            shininess 0.5
        }
    }
    geometry IndexedFaceSet {
        ccw TRUE
        solid FALSE
        coord DEF co Coordinate {
            point [
                -6.6319 -0.0531 4.2205, -6.6319 -0.1319 4.1417, -6.3681 -0.0531 4.2205, -6.3681 -0.1319 4.1417, -6.6319 0.0531 4.2205, -6.3681 0.0531 4.2205, -6.6319 0.1319 4.1417, -6.3681 0.1319 4.1417, -6.6319 -0.1319 1.1929, -6.6319 0.1319 1.1929, -6.3681 0.1319 1.1929, -6.3681 -0.1319 1.1929, -6.6319 -0.1319 0.0512, -6.6319 -0.1319 -1.2992, -6.3681 -0.1319 0.0512, -6.3681 -0.1319 -1.2992, -6.3681 0.1319 0.0512, -6.3681 0.1319 -1.2992, -6.6319 0.1319 0.0512, -6.6319 0.1319 -1.2992, -6.6319 0.0531 -1.378, -6.6319 -0.0531 -1.378, -6.3681 -0.0531 -1.378, -6.3681 0.0531 -1.378, -5.6319 -0.0531 4.2205, -5.6319 -0.1319 4.1417, -5.3681 -0.0531 4.2205, -5.3681 -0.1319 4.1417, -5.6319 0.0531 4.2205, -5.3681 0.0531 4.2205, -5.6319 0.1319 4.1417, -5.3681 0.1319 4.1417, -5.6319 -0.1319 1.1929, -5.6319 0.1319 1.1929, -5.3681 0.1319 1.1929, -5.3681 -0.1319 1.1929, -5.6319 -0.1319 0.0512, -5.6319 -0.1319 -1.2992, -5.3681 -0.1319 0.0512, -5.3681 -0.1319 -1.2992, -5.3681 0.1319 0.0512, -5.3681 0.1319 -1.2992, -5.6319 0.1319 0.0512, -5.6319 0.1319 -1.2992, -5.6319 0.0531 -1.378, -5.6319 -0.0531 -1.378, -5.3681 -0.0531 -1.378, -5.3681 0.0531 -1.378, -4.6319 -0.0531 4.2205, -4.6319 -0.1319 4.1417, -4.3681 -0.0531 4.2205, -4.3681 -0.1319 4.1417, -4.6319 0.0531 4.2205, -4.3681 0.0531 4.2205, -4.6319 0.1319 4.1417, -4.3681 0.1319 4.1417, -4.6319 -0.1319 1.1929, -4.6319 0.1319 1.1929, -4.3681 0.1319 1.1929, -4.3681 -0.1319 1.1929, -4.6319 -0.1319 0.0512, -4.6319 -0.1319 -1.2992, -4.3681 -0.1319 0.0512, -4.3681 -0.1319 -1.2992, -4.3681 0.1319 0.0512, -4.3681 0.1319 -1.2992, -4.6319 0.1319 0.0512, -4.6319 0.1319 -1.2992, -4.6319 0.0531 -1.378, -4.6319 -0.0531 -1.378, -4.3681 -0.0531 -1.378, -4.3681 0.0531 -1.378, -3.6319 -0.0531 4.2205, -3.6319 -0.1319 4.1417, -3.3681 -0.0531 4.2205, -3.3681 -0.1319 4.1417, -3.6319 0.0531 4.2205, -3.3681 0.0531 4.2205, -3.6319 0.1319 4.1417, -3.3681 0.1319 4.1417, -3.6319 -0.1319 1.1929, -3.6319 0.1319 1.1929, -3.3681 0.1319 1.1929, -3.3681 -0.1319 1.1929, -3.6319 -0.1319 0.0512, -3.6319 -0.1319 -1.2992, -3.3681 -0.1319 0.0512, -3.3681 -0.1319 -1.2992, -3.3681 0.1319 0.0512, -3.3681 0.1319 -1.2992, -3.6319 0.1319 0.0512, -3.6319 0.1319 -1.2992, -3.6319 0.0531 -1.378, -3.6319 -0.0531 -1.378, -3.3681 -0.0531 -1.378, -3.3681 0.0531 -1.378, -2.6319 -0.0531 4.2205, -2.6319 -0.1319 4.1417, -2.3681 -0.0531 4.2205, -2.3681 -0.1319 4.1417, -2.6319 0.0531 4.2205, -2.3681 0.0531 4.2205, -2.6319 0.1319 4.1417, -2.3681 0.1319 4.1417, -2.6319 -0.1319 1.1929, -2.6319 0.1319 1.1929, -2.3681 0.1319 1.1929, -2.3681 -0.1319 1.1929, -2.6319 -0.1319 0.0512, -2.6319 -0.1319 -1.2992, -2.3681 -0.1319 0.0512, -2.3681 -0.1319 -1.2992, -2.3681 0.1319 0.0512, -2.3681 0.1319 -1.2992, -2.6319 0.1319 0.0512, -2.6319 0.1319 -1.2992, -2.6319 0.0531 -1.378, -2.6319 -0.0531 -1.378, -2.3681 -0.0531 -1.378, -2.3681 0.0531 -1.378, -1.6319 -0.0531 4.2205, -1.6319 -0.1319 4.1417, -1.3681 -0.0531 4.2205, -1.3681 -0.1319 4.1417, -1.6319 0.0531 4.2205, -1.3681 0.0531 4.2205, -1.6319 0.1319 4.1417, -1.3681 0.1319 4.1417, -1.6319 -0.1319 1.1929, -1.6319 0.1319 1.1929, -1.3681 0.1319 1.1929, -1.3681 -0.1319 1.1929, -1.6319 -0.1319 0.0512, -1.6319 -0.1319 -1.2992, -1.3681 -0.1319 0.0512, -1.3681 -0.1319 -1.2992, -1.3681 0.1319 0.0512, -1.3681 0.1319 -1.2992, -1.6319 0.1319 0.0512, -1.6319 0.1319 -1.2992, -1.6319 0.0531 -1.378, -1.6319 -0.0531 -1.378, -1.3681 -0.0531 -1.378, -1.3681 0.0531 -1.378, -0.6319 -0.0531 4.2205, -0.6319 -0.1319 4.1417, -0.3681 -0.0531 4.2205, -0.3681 -0.1319 4.1417, -0.6319 0.0531 4.2205, -0.3681 0.0531 4.2205, -0.6319 0.1319 4.1417, -0.3681 0.1319 4.1417, -0.6319 -0.1319 1.1929, -0.6319 0.1319 1.1929, -0.3681 0.1319 1.1929, -0.3681 -0.1319 1.1929, -0.6319 -0.1319 0.0512, -0.6319 -0.1319 -1.2992, -0.3681 -0.1319 0.0512, -0.3681 -0.1319 -1.2992, -0.3681 0.1319 0.0512, -0.3681 0.1319 -1.2992, -0.6319 0.1319 0.0512, -0.6319 0.1319 -1.2992, -0.6319 0.0531 -1.378, -0.6319 -0.0531 -1.378, -0.3681 -0.0531 -1.378, -0.3681 0.0531 -1.378, 0.3681 -0.0531 4.2205, 0.3681 -0.1319 4.1417, 0.6319 -0.0531 4.2205, 0.6319 -0.1319 4.1417, 0.3681 0.0531 4.2205, 0.6319 0.0531 4.2205, 0.3681 0.1319 4.1417, 0.6319 0.1319 4.1417, 0.3681 -0.1319 1.1929, 0.3681 0.1319 1.1929, 0.6319 0.1319 1.1929, 0.6319 -0.1319 1.1929, 0.3681 -0.1319 0.0512, 0.3681 -0.1319 -1.2992, 0.6319 -0.1319 0.0512, 0.6319 -0.1319 -1.2992, 0.6319 0.1319 0.0512, 0.6319 0.1319 -1.2992, 0.3681 0.1319 0.0512, 0.3681 0.1319 -1.2992, 0.3681 0.0531 -1.378, 0.3681 -0.0531 -1.378, 0.6319 -0.0531 -1.378, 0.6319 0.0531 -1.378, 1.3681 -0.0531 4.2205, 1.3681 -0.1319 4.1417, 1.6319 -0.0531 4.2205, 1.6319 -0.1319 4.1417, 1.3681 0.0531 4.2205, 1.6319 0.0531 4.2205, 1.3681 0.1319 4.1417, 1.6319 0.1319 4.1417, 1.3681 -0.1319 1.1929, 1.3681 0.1319 1.1929, 1.6319 0.1319 1.1929, 1.6319 -0.1319 1.1929, 1.3681 -0.1319 0.0512, 1.3681 -0.1319 -1.2992, 1.6319 -0.1319 0.0512, 1.6319 -0.1319 -1.2992, 1.6319 0.1319 0.0512, 1.6319 0.1319 -1.2992, 1.3681 0.1319 0.0512, 1.3681 0.1319 -1.2992, 1.3681 0.0531 -1.378, 1.3681 -0.0531 -1.378, 1.6319 -0.0531 -1.378, 1.6319 0.0531 -1.378, 2.3681 -0.0531 4.2205, 2.3681 -0.1319 4.1417, 2.6319 -0.0531 4.2205, 2.6319 -0.1319 4.1417, 2.3681 0.0531 4.2205, 2.6319 0.0531 4.2205, 2.3681 0.1319 4.1417, 2.6319 0.1319 4.1417, 2.3681 -0.1319 1.1929, 2.3681 0.1319 1.1929, 2.6319 0.1319 1.1929, 2.6319 -0.1319 1.1929, 2.3681 -0.1319 0.0512, 2.3681 -0.1319 -1.2992, 2.6319 -0.1319 0.0512, 2.6319 -0.1319 -1.2992, 2.6319 0.1319 0.0512, 2.6319 0.1319 -1.2992, 2.3681 0.1319 0.0512, 2.3681 0.1319 -1.2992, 2.3681 0.0531 -1.378, 2.3681 -0.0531 -1.378, 2.6319 -0.0531 -1.378, 2.6319 0.0531 -1.378, 3.3681 -0.0531 4.2205, 3.3681 -0.1319 4.1417, 3.6319 -0.0531 4.2205, 3.6319 -0.1319 4.1417, 3.3681 0.0531 4.2205, 3.6319 0.0531 4.2205, 3.3681 0.1319 4.1417, 3.6319 0.1319 4.1417, 3.3681 -0.1319 1.1929, 3.3681 0.1319 1.1929, 3.6319 0.1319 1.1929, 3.6319 -0.1319 1.1929, 3.3681 -0.1319 0.0512, 3.3681 -0.1319 -1.2992, 3.6319 -0.1319 0.0512, 3.6319 -0.1319 -1.2992, 3.6319 0.1319 0.0512, 3.6319 0.1319 -1.2992, 3.3681 0.1319 0.0512, 3.3681 0.1319 -1.2992, 3.3681 0.0531 -1.378, 3.3681 -0.0531 -1.378, 3.6319 -0.0531 -1.378, 3.6319 0.0531 -1.378, 4.3681 -0.0531 4.2205, 4.3681 -0.1319 4.1417, 4.6319 -0.0531 4.2205, 4.6319 -0.1319 4.1417, 4.3681 0.0531 4.2205, 4.6319 0.0531 4.2205, 4.3681 0.1319 4.1417, 4.6319 0.1319 4.1417, 4.3681 -0.1319 1.1929, 4.3681 0.1319 1.1929, 4.6319 0.1319 1.1929, 4.6319 -0.1319 1.1929, 4.3681 -0.1319 0.0512, 4.3681 -0.1319 -1.2992, 4.6319 -0.1319 0.0512, 4.6319 -0.1319 -1.2992, 4.6319 0.1319 0.0512, 4.6319 0.1319 -1.2992, 4.3681 0.1319 0.0512, 4.3681 0.1319 -1.2992, 4.3681 0.0531 -1.378, 4.3681 -0.0531 -1.378, 4.6319 -0.0531 -1.378, 4.6319 0.0531 -1.378, 5.3681 -0.0531 4.2205, 5.3681 -0.1319 4.1417, 5.6319 -0.0531 4.2205, 5.6319 -0.1319 4.1417, 5.3681 0.0531 4.2205, 5.6319 0.0531 4.2205, 5.3681 0.1319 4.1417, 5.6319 0.1319 4.1417, 5.3681 -0.1319 1.1929, 5.3681 0.1319 1.1929, 5.6319 0.1319 1.1929, 5.6319 -0.1319 1.1929, 5.3681 -0.1319 0.0512, 5.3681 -0.1319 -1.2992, 5.6319 -0.1319 0.0512, 5.6319 -0.1319 -1.2992, 5.6319 0.1319 0.0512, 5.6319 0.1319 -1.2992, 5.3681 0.1319 0.0512, 5.3681 0.1319 -1.2992, 5.3681 0.0531 -1.378, 5.3681 -0.0531 -1.378, 5.6319 -0.0531 -1.378, 5.6319 0.0531 -1.378, 6.3681 -0.0531 4.2205, 6.3681 -0.1319 4.1417, 6.6319 -0.0531 4.2205, 6.6319 -0.1319 4.1417, 6.3681 0.0531 4.2205, 6.6319 0.0531 4.2205, 6.3681 0.1319 4.1417, 6.6319 0.1319 4.1417, 6.3681 -0.1319 1.1929, 6.3681 0.1319 1.1929, 6.6319 0.1319 1.1929, 6.6319 -0.1319 1.1929, 6.3681 -0.1319 0.0512, 6.3681 -0.1319 -1.2992, 6.6319 -0.1319 0.0512, 6.6319 -0.1319 -1.2992, 6.6319 0.1319 0.0512, 6.6319 0.1319 -1.2992, 6.3681 0.1319 0.0512, 6.3681 0.1319 -1.2992, 6.3681 0.0531 -1.378, 6.3681 -0.0531 -1.378, 6.6319 -0.0531 -1.378, 6.6319 0.0531 -1.378, 7.3681 -0.0531 4.2205, 7.3681 -0.1319 4.1417, 7.6319 -0.0531 4.2205, 7.6319 -0.1319 4.1417, 7.3681 0.0531 4.2205, 7.6319 0.0531 4.2205, 7.3681 0.1319 4.1417, 7.6319 0.1319 4.1417, 7.3681 -0.1319 1.1929, 7.3681 0.1319 1.1929, 7.6319 0.1319 1.1929, 7.6319 -0.1319 1.1929, 7.3681 -0.1319 0.0512, 7.3681 -0.1319 -1.2992, 7.6319 -0.1319 0.0512, 7.6319 -0.1319 -1.2992, 7.6319 0.1319 0.0512, 7.6319 0.1319 -1.2992, 7.3681 0.1319 0.0512, 7.3681 0.1319 -1.2992, 7.3681 0.0531 -1.378, 7.3681 -0.0531 -1.378, 7.6319 -0.0531 -1.378, 7.6319 0.0531 -1.378, -1.8819 0.0154 0.0118, -1.8819 0.017 0.0118, -1.8819 0.0154 -0.0276, -1.8819 0.017 -0.0276, -2.0 0.0715 0.0118, -2.0 0.0715 -0.0276, -2.0 0.0599 0.0118, -2.0 0.0599 -0.0276, -1.9621 0.0425 0.0118, -1.9621 0.0425 -0.0276, -1.9621 -0.0111 0.0118, -1.9621 -0.0111 -0.0276, -2.0 -0.029 0.0118, -2.0 -0.029 -0.0276, -2.0 -0.0406 0.0118, -2.0 -0.0406 -0.0276, -1.95 -0.0053 0.0118, -1.9049 0.0161 0.0118, -1.95 0.0369 0.0118, -1.95 0.0369 -0.0276, -1.9049 0.0161 -0.0276, -1.95 -0.0053 -0.0276, -2.0 -0.116 0.0118, -2.0 -0.1526 0.0118, -2.0 -0.116 -0.0276, -2.0 -0.1526 -0.0276, -1.8819 -0.1526 0.0118, -1.8819 -0.1526 -0.0276, -1.8819 -0.1288 0.0118, -1.8819 -0.1288 -0.0276, -1.8861 -0.0913 0.0118, -1.8861 -0.0913 -0.0276, -1.8826 -0.1099 -0.0276, -1.8826 -0.1099 0.0118, -1.9424 -0.0557 0.0118, -1.9424 -0.0557 -0.0276, -1.9374 -0.0559 -0.0276, -1.9374 -0.0559 0.0118, -1.9231 -0.0582 -0.0276, -1.9231 -0.0582 0.0118, -1.9106 -0.0631 -0.0276, -1.9106 -0.0631 0.0118, -1.8998 -0.0706 -0.0276, -1.8998 -0.0706 0.0118, -1.8922 -0.0794 -0.0276, -1.8922 -0.0794 0.0118, -1.9994 -0.1034 -0.0276, -1.9994 -0.1034 0.0118, -1.9961 -0.0884 -0.0276, -1.9961 -0.0884 0.0118, -1.9911 -0.0785 -0.0276, -1.9911 -0.0785 0.0118, -1.9835 -0.0701 -0.0276, -1.9835 -0.0701 0.0118, -1.9714 -0.062 -0.0276, -1.9714 -0.062 0.0118, -1.9583 -0.0574 -0.0276, -1.9583 -0.0574 0.0118, -1.8946 -0.1155 0.0118, -1.8973 -0.0974 0.0118, -1.8992 -0.0921 0.0118, -1.9044 -0.0833 0.0118, -1.9111 -0.0765 0.0118, -1.9197 -0.0711 0.0118, -1.9299 -0.0676 0.0118, -1.9424 -0.0663 0.0118, -1.9454 -0.0664 0.0118, -1.9579 -0.0684 0.0118, -1.9669 -0.0723 0.0118, -1.9748 -0.0782 0.0118, -1.9805 -0.0853 0.0118, -1.9849 -0.0947 0.0118, -1.9874 -0.1115 0.0118, -1.9879 -0.1285 0.0118, -1.9879 -0.142 0.0118, -1.894 -0.142 0.0118, -1.894 -0.1337 0.0118, -1.894 -0.142 -0.0276, -1.9879 -0.142 -0.0276, -1.894 -0.1337 -0.0276, -1.8946 -0.1155 -0.0276, -1.8973 -0.0974 -0.0276, -1.8992 -0.0921 -0.0276, -1.9044 -0.0833 -0.0276, -1.9111 -0.0765 -0.0276, -1.9197 -0.0711 -0.0276, -1.9299 -0.0676 -0.0276, -1.9424 -0.0663 -0.0276, -1.9454 -0.0664 -0.0276, -1.9579 -0.0684 -0.0276, -1.9669 -0.0723 -0.0276, -1.9748 -0.0782 -0.0276, -1.9805 -0.0853 -0.0276, -1.9849 -0.0947 -0.0276, -1.9874 -0.1115 -0.0276, -1.9879 -0.1285 -0.0276, -2.0 -0.2405 0.0118, -1.8819 -0.2405 0.0118, -2.0 -0.2405 -0.0276, -1.8819 -0.2405 -0.0276, -1.8819 -0.1738 0.0118, -1.8819 -0.1738 -0.0276, -1.894 -0.1738 0.0118, -1.894 -0.1738 -0.0276, -1.894 -0.2299 0.0118, -1.894 -0.2299 -0.0276, -1.9303 -0.2299 0.0118, -1.9303 -0.2299 -0.0276, -1.9303 -0.1738 0.0118, -1.9303 -0.1738 -0.0276, -1.9425 -0.1738 0.0118, -1.9425 -0.1738 -0.0276, -1.9425 -0.2299 0.0118, -1.9425 -0.2299 -0.0276, -1.9879 -0.2299 0.0118, -1.9879 -0.2299 -0.0276, -1.9879 -0.1738 0.0118, -1.9879 -0.1738 -0.0276, -2.0 -0.1738 0.0118, -2.0 -0.1738 -0.0276, -1.9036 -0.2647 0.0118, -1.9036 -0.2647 -0.0276, -1.9015 -0.2663 -0.0276, -1.9015 -0.2663 0.0118, -1.8917 -0.2762 -0.0276, -1.8917 -0.2762 0.0118, -1.8841 -0.2892 -0.0276, -1.8841 -0.2892 0.0118, -1.8809 -0.2987 -0.0276, -1.8809 -0.2987 0.0118, -1.8789 -0.3162 -0.0276, -1.8789 -0.3162 0.0118, -1.9107 -0.274 0.0118, -1.9107 -0.274 -0.0276, -1.891 -0.3169 0.0118, -1.891 -0.3169 -0.0276, -1.8912 -0.3121 -0.0276, -1.8912 -0.3121 0.0118, -1.8932 -0.3004 -0.0276, -1.8932 -0.3004 0.0118, -1.8953 -0.2943 -0.0276, -1.8953 -0.2943 0.0118, -1.9013 -0.2837 -0.0276, -1.9013 -0.2837 0.0118, -1.9411 -0.3692 0.0118, -1.9411 -0.3692 -0.0276, -1.9353 -0.3689 -0.0276, -1.9353 -0.3689 0.0118, -1.924 -0.3664 -0.0276, -1.924 -0.3664 0.0118, -1.9135 -0.3611 -0.0276, -1.9135 -0.3611 0.0118, -1.905 -0.3538 -0.0276, -1.905 -0.3538 0.0118, -1.8974 -0.3429 -0.0276, -1.8974 -0.3429 0.0118, -1.8927 -0.3308 -0.0276, -1.8927 -0.3308 0.0118, -1.9909 -0.3161 0.0118, -1.9909 -0.3161 -0.0276, -1.9903 -0.3255 -0.0276, -1.9903 -0.3255 0.0118, -1.9872 -0.3375 -0.0276, -1.9872 -0.3375 0.0118, -1.981 -0.3489 -0.0276, -1.981 -0.3489 0.0118, -1.9731 -0.3576 -0.0276, -1.9731 -0.3576 0.0118, -1.9639 -0.3639 -0.0276, -1.9639 -0.3639 0.0118, -1.9541 -0.3676 -0.0276, -1.9541 -0.3676 0.0118, -1.9712 -0.274 0.0118, -1.9712 -0.274 -0.0276, -1.9778 -0.2805 -0.0276, -1.9778 -0.2805 0.0118, -1.985 -0.2909 -0.0276, -1.985 -0.2909 0.0118, -1.9893 -0.3023 -0.0276, -1.9893 -0.3023 0.0118, -1.9783 -0.2647 0.0118, -1.9783 -0.2647 -0.0276, -2.003 -0.3161 0.0118, -2.003 -0.3161 -0.0276, -2.003 -0.3143 -0.0276, -2.003 -0.3143 0.0118, -2.0015 -0.3024 -0.0276, -2.0012 -0.2994 0.0118, -2.0012 -0.2994 -0.0276, -1.9971 -0.2878 -0.0276, -1.9971 -0.2878 0.0118, -1.9892 -0.2751 -0.0276, -1.9892 -0.2751 0.0118, -2.0015 -0.3293 -0.0276, -2.0009 -0.3345 0.0118, -2.0009 -0.3345 -0.0276, -1.9955 -0.3486 0.0118, -1.9955 -0.3486 -0.0276, -1.9873 -0.3601 0.0118, -1.9873 -0.3601 -0.0276, -1.9824 -0.3648 0.0118, -1.9824 -0.3648 -0.0276, -1.9403 -0.3798 0.0118, -1.9403 -0.3798 -0.0276, -1.9559 -0.3781 -0.0276, -1.9559 -0.3781 0.0118, -1.9694 -0.3734 -0.0276, -1.9694 -0.3734 0.0118, -1.8794 -0.3257 -0.0276, -1.8794 -0.3257 0.0118, -1.8828 -0.3401 -0.0276, -1.8828 -0.3401 0.0118, -1.8892 -0.3526 -0.0276, -1.8892 -0.3526 0.0118, -1.9 -0.3649 -0.0276, -1.9 -0.3649 0.0118, -1.9116 -0.373 -0.0276, -1.9116 -0.373 0.0118, -1.9241 -0.3778 -0.0276, -1.9241 -0.3778 0.0118, -2.0 -0.4494 0.0118, -1.8819 -0.4494 0.0118, -2.0 -0.4494 -0.0276, -1.8819 -0.4494 -0.0276, -1.8819 -0.4388 0.0118, -1.8819 -0.4388 -0.0276, -1.9879 -0.4388 0.0118, -1.9879 -0.4388 -0.0276, -1.9879 -0.3934 0.0118, -1.9879 -0.3934 -0.0276, -2.0 -0.3934 0.0118, -2.0 -0.3934 -0.0276
            ]
        }
        coordIndex [
            0,1,2,-1,2,1,3,-1,4,0,5,-1,5,0,2,-1,6,4,7,-1,7,4,5,-1,0,4,1,-1,1,4,6,-1,1,6,8,-1,8,6,9,-1,5,2,7,-1,7,2,3,-1,7,3,10,-1,10,3,11,-1,9,6,10,-1,10,6,7,-1,11,3,8,-1,8,3,1,-1,12,13,14,-1,14,13,15,-1,16,17,18,-1,18,17,19,-1,20,21,19,-1,19,21,13,-1,19,13,18,-1,18,13,12,-1,22,23,15,-1,15,23,17,-1,15,17,14,-1,14,17,16,-1,20,19,23,-1,23,19,17,-1,21,20,22,-1,22,20,23,-1,13,21,15,-1,15,21,22,-1,24,25,26,-1,26,25,27,-1,28,24,29,-1,29,24,26,-1,30,28,31,-1,31,28,29,-1,24,28,25,-1,25,28,30,-1,25,30,32,-1,32,30,33,-1,29,26,31,-1,31,26,27,-1,31,27,34,-1,34,27,35,-1,33,30,34,-1,34,30,31,-1,35,27,32,-1,32,27,25,-1,36,37,38,-1,38,37,39,-1,40,41,42,-1,42,41,43,-1,44,45,43,-1,43,45,37,-1,43,37,42,-1,42,37,36,-1,46,47,39,-1,39,47,41,-1,39,41,38,-1,38,41,40,-1,44,43,47,-1,47,43,41,-1,45,44,46,-1,46,44,47,-1,37,45,39,-1,39,45,46,-1,48,49,50,-1,50,49,51,-1,52,48,53,-1,53,48,50,-1,54,52,55,-1,55,52,53,-1,48,52,49,-1,49,52,54,-1,49,54,56,-1,56,54,57,-1,53,50,55,-1,55,50,51,-1,55,51,58,-1,58,51,59,-1,57,54,58,-1,58,54,55,-1,59,51,56,-1,56,51,49,-1,60,61,62,-1,62,61,63,-1,64,65,66,-1,66,65,67,-1,68,69,67,-1,67,69,61,-1,67,61,66,-1,66,61,60,-1,70,71,63,-1,63,71,65,-1,63,65,62,-1,62,65,64,-1,68,67,71,-1,71,67,65,-1,69,68,70,-1,70,68,71,-1,61,69,63,-1,63,69,70,-1,72,73,74,-1,74,73,75,-1,76,72,77,-1,77,72,74,-1,78,76,79,-1,79,76,77,-1,72,76,73,-1,73,76,78,-1,73,78,80,-1,80,78,81,-1,77,74,79,-1,79,74,75,-1,79,75,82,-1,82,75,83,-1,81,78,82,-1,82,78,79,-1,83,75,80,-1,80,75,73,-1,84,85,86,-1,86,85,87,-1,88,89,90,-1,90,89,91,-1,92,93,91,-1,91,93,85,-1,91,85,90,-1,90,85,84,-1,94,95,87,-1,87,95,89,-1,87,89,86,-1,86,89,88,-1,92,91,95,-1,95,91,89,-1,93,92,94,-1,94,92,95,-1,85,93,87,-1,87,93,94,-1,96,97,98,-1,98,97,99,-1,100,96,101,-1,101,96,98,-1,102,100,103,-1,103,100,101,-1,96,100,97,-1,97,100,102,-1,97,102,104,-1,104,102,105,-1,101,98,103,-1,103,98,99,-1,103,99,106,-1,106,99,107,-1,105,102,106,-1,106,102,103,-1,107,99,104,-1,104,99,97,-1,108,109,110,-1,110,109,111,-1,112,113,114,-1,114,113,115,-1,116,117,115,-1,115,117,109,-1,115,109,114,-1,114,109,108,-1,118,119,111,-1,111,119,113,-1,111,113,110,-1,110,113,112,-1,116,115,119,-1,119,115,113,-1,117,116,118,-1,118,116,119,-1,109,117,111,-1,111,117,118,-1,120,121,122,-1,122,121,123,-1,124,120,125,-1,125,120,122,-1,126,124,127,-1,127,124,125,-1,120,124,121,-1,121,124,126,-1,121,126,128,-1,128,126,129,-1,125,122,127,-1,127,122,123,-1,127,123,130,-1,130,123,131,-1,129,126,130,-1,130,126,127,-1,131,123,128,-1,128,123,121,-1,132,133,134,-1,134,133,135,-1,136,137,138,-1,138,137,139,-1,140,141,139,-1,139,141,133,-1,139,133,138,-1,138,133,132,-1,142,143,135,-1,135,143,137,-1,135,137,134,-1,134,137,136,-1,140,139,143,-1,143,139,137,-1,141,140,142,-1,142,140,143,-1,133,141,135,-1,135,141,142,-1,144,145,146,-1,146,145,147,-1,148,144,149,-1,149,144,146,-1,150,148,151,-1,151,148,149,-1,144,148,145,-1,145,148,150,-1,145,150,152,-1,152,150,153,-1,149,146,151,-1,151,146,147,-1,151,147,154,-1,154,147,155,-1,153,150,154,-1,154,150,151,-1,155,147,152,-1,152,147,145,-1,156,157,158,-1,158,157,159,-1,160,161,162,-1,162,161,163,-1,164,165,163,-1,163,165,157,-1,163,157,162,-1,162,157,156,-1,166,167,159,-1,159,167,161,-1,159,161,158,-1,158,161,160,-1,164,163,167,-1,167,163,161,-1,165,164,166,-1,166,164,167,-1,157,165,159,-1,159,165,166,-1,168,169,170,-1,170,169,171,-1,172,168,173,-1,173,168,170,-1,174,172,175,-1,175,172,173,-1,168,172,169,-1,169,172,174,-1,169,174,176,-1,176,174,177,-1,173,170,175,-1,175,170,171,-1,175,171,178,-1,178,171,179,-1,177,174,178,-1,178,174,175,-1,179,171,176,-1,176,171,169,-1,180,181,182,-1,182,181,183,-1,184,185,186,-1,186,185,187,-1,188,189,187,-1,187,189,181,-1,187,181,186,-1,186,181,180,-1,190,191,183,-1,183,191,185,-1,183,185,182,-1,182,185,184,-1,188,187,191,-1,191,187,185,-1,189,188,190,-1,190,188,191,-1,181,189,183,-1,183,189,190,-1,192,193,194,-1,194,193,195,-1,196,192,197,-1,197,192,194,-1,198,196,199,-1,199,196,197,-1,192,196,193,-1,193,196,198,-1,193,198,200,-1,200,198,201,-1,197,194,199,-1,199,194,195,-1,199,195,202,-1,202,195,203,-1,201,198,202,-1,202,198,199,-1,203,195,200,-1,200,195,193,-1,204,205,206,-1,206,205,207,-1,208,209,210,-1,210,209,211,-1,212,213,211,-1,211,213,205,-1,211,205,210,-1,210,205,204,-1,214,215,207,-1,207,215,209,-1,207,209,206,-1,206,209,208,-1,212,211,215,-1,215,211,209,-1,213,212,214,-1,214,212,215,-1,205,213,207,-1,207,213,214,-1,216,217,218,-1,218,217,219,-1,220,216,221,-1,221,216,218,-1,222,220,223,-1,223,220,221,-1,216,220,217,-1,217,220,222,-1,217,222,224,-1,224,222,225,-1,221,218,223,-1,223,218,219,-1,223,219,226,-1,226,219,227,-1,225,222,226,-1,226,222,223,-1,227,219,224,-1,224,219,217,-1,228,229,230,-1,230,229,231,-1,232,233,234,-1,234,233,235,-1,236,237,235,-1,235,237,229,-1,235,229,234,-1,234,229,228,-1,238,239,231,-1,231,239,233,-1,231,233,230,-1,230,233,232,-1,236,235,239,-1,239,235,233,-1,237,236,238,-1,238,236,239,-1,229,237,231,-1,231,237,238,-1,240,241,242,-1,242,241,243,-1,244,240,245,-1,245,240,242,-1,246,244,247,-1,247,244,245,-1,240,244,241,-1,241,244,246,-1,241,246,248,-1,248,246,249,-1,245,242,247,-1,247,242,243,-1,247,243,250,-1,250,243,251,-1,249,246,250,-1,250,246,247,-1,251,243,248,-1,248,243,241,-1,252,253,254,-1,254,253,255,-1,256,257,258,-1,258,257,259,-1,260,261,259,-1,259,261,253,-1,259,253,258,-1,258,253,252,-1,262,263,255,-1,255,263,257,-1,255,257,254,-1,254,257,256,-1,260,259,263,-1,263,259,257,-1,261,260,262,-1,262,260,263,-1,253,261,255,-1,255,261,262,-1,264,265,266,-1,266,265,267,-1,268,264,269,-1,269,264,266,-1,270,268,271,-1,271,268,269,-1,264,268,265,-1,265,268,270,-1,265,270,272,-1,272,270,273,-1,269,266,271,-1,271,266,267,-1,271,267,274,-1,274,267,275,-1,273,270,274,-1,274,270,271,-1,275,267,272,-1,272,267,265,-1,276,277,278,-1,278,277,279,-1,280,281,282,-1,282,281,283,-1,284,285,283,-1,283,285,277,-1,283,277,282,-1,282,277,276,-1,286,287,279,-1,279,287,281,-1,279,281,278,-1,278,281,280,-1,284,283,287,-1,287,283,281,-1,285,284,286,-1,286,284,287,-1,277,285,279,-1,279,285,286,-1,288,289,290,-1,290,289,291,-1,292,288,293,-1,293,288,290,-1,294,292,295,-1,295,292,293,-1,288,292,289,-1,289,292,294,-1,289,294,296,-1,296,294,297,-1,293,290,295,-1,295,290,291,-1,295,291,298,-1,298,291,299,-1,297,294,298,-1,298,294,295,-1,299,291,296,-1,296,291,289,-1,300,301,302,-1,302,301,303,-1,304,305,306,-1,306,305,307,-1,308,309,307,-1,307,309,301,-1,307,301,306,-1,306,301,300,-1,310,311,303,-1,303,311,305,-1,303,305,302,-1,302,305,304,-1,308,307,311,-1,311,307,305,-1,309,308,310,-1,310,308,311,-1,301,309,303,-1,303,309,310,-1,312,313,314,-1,314,313,315,-1,316,312,317,-1,317,312,314,-1,318,316,319,-1,319,316,317,-1,312,316,313,-1,313,316,318,-1,313,318,320,-1,320,318,321,-1,317,314,319,-1,319,314,315,-1,319,315,322,-1,322,315,323,-1,321,318,322,-1,322,318,319,-1,323,315,320,-1,320,315,313,-1,324,325,326,-1,326,325,327,-1,328,329,330,-1,330,329,331,-1,332,333,331,-1,331,333,325,-1,331,325,330,-1,330,325,324,-1,334,335,327,-1,327,335,329,-1,327,329,326,-1,326,329,328,-1,332,331,335,-1,335,331,329,-1,333,332,334,-1,334,332,335,-1,325,333,327,-1,327,333,334,-1,336,337,338,-1,338,337,339,-1,340,336,341,-1,341,336,338,-1,342,340,343,-1,343,340,341,-1,336,340,337,-1,337,340,342,-1,337,342,344,-1,344,342,345,-1,341,338,343,-1,343,338,339,-1,343,339,346,-1,346,339,347,-1,345,342,346,-1,346,342,343,-1,347,339,344,-1,344,339,337,-1,348,349,350,-1,350,349,351,-1,352,353,354,-1,354,353,355,-1,356,357,355,-1,355,357,349,-1,355,349,354,-1,354,349,348,-1,358,359,351,-1,351,359,353,-1,351,353,350,-1,350,353,352,-1,356,355,359,-1,359,355,353,-1,357,356,358,-1,358,356,359,-1,349,357,351,-1,351,357,358,-1,360,361,362,-1,362,361,363,-1,361,364,363,-1,363,364,365,-1,364,366,365,-1,365,366,367,-1,366,368,367,-1,367,368,369,-1,368,370,369,-1,369,370,371,-1,370,372,371,-1,371,372,373,-1,372,374,373,-1,373,374,375,-1,374,360,375,-1,375,360,362,-1,361,360,376,-1,376,377,361,-1,361,377,378,-1,361,378,364,-1,374,372,370,-1,366,364,368,-1,368,364,378,-1,368,378,370,-1,370,378,376,-1,370,376,374,-1,374,376,360,-1,378,377,379,-1,379,377,380,-1,376,378,381,-1,381,378,379,-1,377,376,380,-1,380,376,381,-1,382,383,384,-1,384,383,385,-1,383,386,385,-1,385,386,387,-1,386,388,387,-1,387,388,389,-1,390,391,392,-1,390,392,393,-1,393,392,389,-1,393,389,388,-1,394,395,396,-1,394,396,397,-1,397,396,398,-1,397,398,399,-1,399,398,400,-1,399,400,401,-1,401,400,402,-1,401,402,403,-1,403,402,404,-1,403,404,405,-1,405,404,391,-1,405,391,390,-1,382,384,406,-1,382,406,407,-1,407,406,408,-1,407,408,409,-1,409,408,410,-1,409,410,411,-1,411,410,412,-1,411,412,413,-1,413,412,414,-1,413,414,415,-1,415,414,416,-1,415,416,417,-1,417,416,395,-1,417,395,394,-1,418,419,390,-1,390,419,420,-1,390,420,405,-1,405,420,421,-1,405,421,403,-1,403,421,422,-1,403,422,401,-1,401,422,423,-1,401,423,399,-1,399,423,424,-1,399,424,397,-1,397,424,425,-1,397,425,394,-1,394,425,426,-1,394,426,417,-1,417,426,427,-1,417,427,415,-1,415,427,428,-1,415,428,413,-1,413,428,429,-1,413,429,411,-1,411,429,430,-1,411,430,409,-1,409,430,431,-1,409,431,407,-1,407,431,432,-1,407,432,382,-1,382,432,433,-1,382,433,383,-1,383,433,434,-1,383,434,386,-1,386,434,435,-1,386,435,388,-1,388,435,436,-1,388,436,393,-1,393,436,418,-1,393,418,390,-1,435,434,437,-1,437,434,438,-1,436,435,439,-1,439,435,437,-1,436,439,440,-1,436,440,418,-1,418,440,441,-1,418,441,419,-1,419,441,442,-1,419,442,420,-1,420,442,443,-1,420,443,421,-1,421,443,444,-1,421,444,422,-1,422,444,445,-1,422,445,423,-1,423,445,446,-1,423,446,424,-1,424,446,447,-1,424,447,425,-1,425,447,448,-1,425,448,426,-1,426,448,449,-1,426,449,427,-1,427,449,450,-1,427,450,428,-1,428,450,451,-1,428,451,429,-1,429,451,452,-1,429,452,430,-1,430,452,453,-1,430,453,431,-1,431,453,454,-1,431,454,432,-1,432,454,455,-1,432,455,433,-1,434,433,438,-1,438,433,455,-1,456,457,458,-1,458,457,459,-1,457,460,459,-1,459,460,461,-1,460,462,461,-1,461,462,463,-1,462,464,463,-1,463,464,465,-1,464,466,465,-1,465,466,467,-1,466,468,467,-1,467,468,469,-1,468,470,469,-1,469,470,471,-1,470,472,471,-1,471,472,473,-1,472,474,473,-1,473,474,475,-1,474,476,475,-1,475,476,477,-1,476,478,477,-1,477,478,479,-1,478,456,479,-1,479,456,458,-1,456,478,476,-1,476,474,456,-1,456,474,472,-1,456,472,457,-1,462,460,464,-1,464,460,457,-1,464,457,466,-1,466,457,472,-1,466,472,468,-1,468,472,470,-1,480,481,482,-1,480,482,483,-1,483,482,484,-1,483,484,485,-1,485,484,486,-1,485,486,487,-1,487,486,488,-1,487,488,489,-1,489,488,490,-1,489,490,491,-1,480,492,481,-1,481,492,493,-1,494,495,496,-1,494,496,497,-1,497,496,498,-1,497,498,499,-1,499,498,500,-1,499,500,501,-1,501,500,502,-1,501,502,503,-1,503,502,493,-1,503,493,492,-1,504,505,506,-1,504,506,507,-1,507,506,508,-1,507,508,509,-1,509,508,510,-1,509,510,511,-1,511,510,512,-1,511,512,513,-1,513,512,514,-1,513,514,515,-1,515,514,516,-1,515,516,517,-1,517,516,495,-1,517,495,494,-1,518,519,520,-1,518,520,521,-1,521,520,522,-1,521,522,523,-1,523,522,524,-1,523,524,525,-1,525,524,526,-1,525,526,527,-1,527,526,528,-1,527,528,529,-1,529,528,530,-1,529,530,531,-1,531,530,505,-1,531,505,504,-1,532,533,534,-1,532,534,535,-1,535,534,536,-1,535,536,537,-1,537,536,538,-1,537,538,539,-1,539,538,519,-1,539,519,518,-1,532,540,533,-1,533,540,541,-1,542,543,544,-1,542,544,545,-1,545,544,546,-1,545,546,547,-1,546,548,547,-1,547,548,549,-1,547,549,550,-1,550,549,551,-1,550,551,552,-1,552,551,541,-1,552,541,540,-1,543,542,553,-1,553,542,554,-1,553,554,555,-1,555,554,556,-1,555,556,557,-1,557,556,558,-1,557,558,559,-1,559,558,560,-1,559,560,561,-1,562,563,564,-1,562,564,565,-1,565,564,566,-1,565,566,567,-1,567,566,561,-1,567,561,560,-1,491,490,568,-1,491,568,569,-1,569,568,570,-1,569,570,571,-1,571,570,572,-1,571,572,573,-1,573,572,574,-1,573,574,575,-1,575,574,576,-1,575,576,577,-1,577,576,578,-1,577,578,579,-1,579,578,563,-1,579,563,562,-1,492,480,483,-1,540,532,552,-1,552,532,535,-1,552,535,550,-1,550,535,537,-1,550,537,547,-1,547,537,539,-1,547,539,545,-1,545,539,518,-1,492,483,503,-1,503,483,485,-1,503,485,501,-1,501,485,487,-1,501,487,499,-1,499,487,489,-1,499,489,497,-1,497,489,491,-1,497,491,494,-1,494,491,569,-1,494,569,517,-1,517,569,571,-1,517,571,515,-1,515,571,573,-1,515,573,513,-1,513,573,575,-1,513,575,511,-1,511,575,577,-1,511,577,509,-1,509,577,579,-1,509,579,507,-1,507,579,562,-1,507,562,504,-1,504,562,531,-1,531,562,565,-1,531,565,529,-1,529,565,567,-1,529,567,527,-1,527,567,560,-1,527,560,525,-1,525,560,558,-1,525,558,523,-1,523,558,556,-1,523,556,521,-1,521,556,554,-1,521,554,518,-1,518,554,542,-1,518,542,545,-1,580,581,582,-1,582,581,583,-1,581,584,583,-1,583,584,585,-1,584,586,585,-1,585,586,587,-1,586,588,587,-1,587,588,589,-1,588,590,589,-1,589,590,591,-1,590,580,591,-1,591,580,582,-1,584,581,586,-1,586,581,580,-1,586,580,588,-1,588,580,590,-1,
        ]
    }
}
Shape{
    appearance Appearance {
        material  Material {
            diffuseColor 0.14901960784313725 0.14901960784313725 0.14901960784313725
            specularColor 0.07450980392156863 0.07450980392156863 0.07450980392156863
            ambientIntensity 0.149
            transparency 0.0
            shininess 0.5
        }
    }
    geometry IndexedFaceSet {
        ccw TRUE
        solid FALSE
        coord DEF co Coordinate {
            point [
                -1.9049 0.0161 -0.0276, -1.95 -0.0053 -0.0276, -1.95 0.0369 -0.0276, -1.894 -0.142 -0.0276, -1.9879 -0.142 -0.0276, -1.894 -0.1337 -0.0276, -1.9879 -0.1285 -0.0276, -1.8946 -0.1155 -0.0276, -1.9874 -0.1115 -0.0276, -1.8973 -0.0974 -0.0276, -1.9669 -0.0723 -0.0276, -1.9579 -0.0684 -0.0276, -1.9454 -0.0664 -0.0276, -1.9424 -0.0663 -0.0276, -1.9849 -0.0947 -0.0276, -1.9805 -0.0853 -0.0276, -1.9748 -0.0782 -0.0276, -1.9299 -0.0676 -0.0276, -1.9197 -0.0711 -0.0276, -1.9111 -0.0765 -0.0276, -1.9044 -0.0833 -0.0276, -1.8992 -0.0921 -0.0276
            ]
        }
        coordIndex [
            0,1,2,-1,3,4,5,-1,5,4,6,-1,5,6,7,-1,7,6,8,-1,7,8,9,-1,10,11,8,-1,8,11,12,-1,8,12,13,-1,14,15,8,-1,8,15,16,-1,8,16,10,-1,13,17,8,-1,8,17,18,-1,8,18,19,-1,19,20,8,-1,8,20,21,-1,8,21,9,-1,
        ]
    }
}